<svg width="320" height="420" viewBox="0 0 320 420" fill="none" xmlns="http://www.w3.org/2000/svg" role="img" aria-labelledby="title desc">
  <title id="title">Ai Sticker Pink</title>
  <desc id="desc">Cute sticker style ping pong character in pink.</desc>
  <defs>
    <linearGradient id="hair" x1="88" y1="66" x2="236" y2="170" gradientUnits="userSpaceOnUse">
      <stop stop-color="#FFC6E8"/>
      <stop offset="1" stop-color="#C44991"/>
    </linearGradient>
    <linearGradient id="outfit" x1="160" y1="210" x2="160" y2="352" gradientUnits="userSpaceOnUse">
      <stop stop-color="#FFB1E0"/>
      <stop offset="1" stop-color="#FF5CB8"/>
    </linearGradient>
  </defs>

  <ellipse cx="160" cy="394" rx="76" ry="18" fill="#2C0E28" fill-opacity="0.33"/>

  <path d="M94 232L66 274" stroke="#FFFFFF" stroke-width="40" stroke-linecap="round"/>
  <path d="M226 232L258 276" stroke="#FFFFFF" stroke-width="40" stroke-linecap="round"/>
  <path d="M145 326L141 368" stroke="#FFFFFF" stroke-width="40" stroke-linecap="round"/>
  <path d="M176 326L178 368" stroke="#FFFFFF" stroke-width="40" stroke-linecap="round"/>
  <rect x="102" y="190" width="116" height="150" rx="46" fill="url(#outfit)" stroke="#FFFFFF" stroke-width="18"/>
  <circle cx="160" cy="122" r="76" fill="#FFE6EE" stroke="#FFFFFF" stroke-width="18"/>

  <path d="M94 232L66 274" stroke="#3B2542" stroke-width="14" stroke-linecap="round"/>
  <path d="M226 232L258 276" stroke="#3B2542" stroke-width="14" stroke-linecap="round"/>
  <path d="M145 326L141 368" stroke="#3B2542" stroke-width="14" stroke-linecap="round"/>
  <path d="M176 326L178 368" stroke="#3B2542" stroke-width="14" stroke-linecap="round"/>
  <rect x="102" y="190" width="116" height="150" rx="46" fill="url(#outfit)" stroke="#3B2542" stroke-width="6"/>
  <circle cx="160" cy="122" r="76" fill="#FFE6EE" stroke="#3B2542" stroke-width="6"/>

  <path d="M92 126C92 80 125 52 163 52C200 52 232 82 232 126C223 113 207 104 185 102C158 100 127 111 92 126Z" fill="url(#hair)" stroke="#3B2542" stroke-width="6" stroke-linejoin="round"/>
  <circle cx="216" cy="88" r="14" fill="#FFC4E4" stroke="#3B2542" stroke-width="5"/>

  <ellipse cx="137" cy="131" rx="13" ry="15" fill="#7A2A61"/>
  <ellipse cx="185" cy="131" rx="13" ry="15" fill="#7A2A61"/>
  <ellipse cx="133" cy="127" rx="4" ry="4" fill="#FFFFFF"/>
  <ellipse cx="181" cy="127" rx="4" ry="4" fill="#FFFFFF"/>
  <ellipse cx="118" cy="152" rx="10" ry="5" fill="#FFB4C8" fill-opacity="0.95"/>
  <ellipse cx="203" cy="152" rx="10" ry="5" fill="#FFB4C8" fill-opacity="0.95"/>
  <path d="M147 164C154 170 166 170 173 164" stroke="#D5758D" stroke-width="5" stroke-linecap="round"/>

  <rect x="145" y="222" width="30" height="90" rx="12" fill="#FFF0FA" fill-opacity="0.62"/>

  <path d="M66 274L40 288" stroke="#FFFFFF" stroke-width="24" stroke-linecap="round"/>
  <circle cx="29" cy="293" r="24" fill="#FFFFFF" stroke="#FFFFFF" stroke-width="12"/>
  <path d="M66 274L40 288" stroke="#3B2542" stroke-width="8" stroke-linecap="round"/>
  <circle cx="29" cy="293" r="24" fill="#FFFFFF" stroke="#3B2542" stroke-width="4"/>
  <circle cx="29" cy="293" r="8" fill="#FF96CE"/>

  <path d="M244 82L254 96" stroke="#FFFFFF" stroke-width="10" stroke-linecap="round"/>
  <path d="M254 82L244 96" stroke="#FFFFFF" stroke-width="10" stroke-linecap="round"/>
</svg>
