<svg width="1600" height="900" viewBox="0 0 1600 900" fill="none" xmlns="http://www.w3.org/2000/svg">
  <defs>
    <linearGradient id="bgSky" x1="800" y1="0" x2="800" y2="900" gradientUnits="userSpaceOnUse">
      <stop stop-color="#090C1C"/>
      <stop offset="0.55" stop-color="#121836"/>
      <stop offset="1" stop-color="#190F2F"/>
    </linearGradient>
    <radialGradient id="moonGlow" cx="0" cy="0" r="1" gradientUnits="userSpaceOnUse" gradientTransform="translate(1200 190) rotate(90) scale(210)">
      <stop stop-color="#9CE8FF" stop-opacity="0.6"/>
      <stop offset="1" stop-color="#9CE8FF" stop-opacity="0"/>
    </radialGradient>
    <linearGradient id="groundGlow" x1="800" y1="520" x2="800" y2="900" gradientUnits="userSpaceOnUse">
      <stop stop-color="#4A248F" stop-opacity="0.15"/>
      <stop offset="1" stop-color="#080B1A"/>
    </linearGradient>
    <linearGradient id="horizonLine" x1="0" y1="0" x2="1600" y2="0" gradientUnits="userSpaceOnUse">
      <stop stop-color="#5A31D2" stop-opacity="0"/>
      <stop offset="0.5" stop-color="#7CC8FF"/>
      <stop offset="1" stop-color="#5A31D2" stop-opacity="0"/>
    </linearGradient>
    <linearGradient id="swordGlow" x1="0" y1="0" x2="0" y2="1">
      <stop stop-color="#E5FDFF"/>
      <stop offset="1" stop-color="#46D9FF"/>
    </linearGradient>
    <linearGradient id="orbGlow" x1="0" y1="0" x2="1" y2="1">
      <stop stop-color="#B9F5FF"/>
      <stop offset="1" stop-color="#3CAEFF"/>
    </linearGradient>
    <linearGradient id="bossGlow" x1="0" y1="0" x2="1" y2="1">
      <stop stop-color="#FF5AE0"/>
      <stop offset="1" stop-color="#8B3BFF"/>
    </linearGradient>
    <filter id="blur32" x="-120" y="-120" width="1840" height="1140" filterUnits="userSpaceOnUse">
      <feGaussianBlur stdDeviation="32"/>
    </filter>
    <filter id="blur12" x="-60" y="-60" width="1720" height="1020" filterUnits="userSpaceOnUse">
      <feGaussianBlur stdDeviation="12"/>
    </filter>
    <filter id="glowBlue" x="-80" y="-80" width="1760" height="1060" filterUnits="userSpaceOnUse">
      <feDropShadow dx="0" dy="0" stdDeviation="10" flood-color="#4ED7FF" flood-opacity="0.8"/>
      <feDropShadow dx="0" dy="0" stdDeviation="24" flood-color="#2D77FF" flood-opacity="0.5"/>
    </filter>
    <filter id="glowPink" x="-80" y="-80" width="1760" height="1060" filterUnits="userSpaceOnUse">
      <feDropShadow dx="0" dy="0" stdDeviation="8" flood-color="#FF67E8" flood-opacity="0.8"/>
      <feDropShadow dx="0" dy="0" stdDeviation="20" flood-color="#9B4CFF" flood-opacity="0.7"/>
    </filter>
    <clipPath id="panelClip">
      <rect x="140" y="84" width="430" height="128" rx="20"/>
    </clipPath>
  </defs>

  <rect width="1600" height="900" fill="url(#bgSky)"/>
  <circle cx="1200" cy="190" r="210" fill="url(#moonGlow)"/>
  <ellipse cx="1200" cy="190" rx="67" ry="67" fill="#D8F5FF" fill-opacity="0.35"/>

  <g opacity="0.9">
    <circle cx="146" cy="105" r="2" fill="#A3B2FF"/>
    <circle cx="235" cy="150" r="3" fill="#96FFE8"/>
    <circle cx="372" cy="92" r="2" fill="#A3B2FF"/>
    <circle cx="560" cy="172" r="2" fill="#7BC4FF"/>
    <circle cx="694" cy="88" r="2" fill="#C0C9FF"/>
    <circle cx="884" cy="150" r="3" fill="#A3B2FF"/>
    <circle cx="1032" cy="76" r="2" fill="#85F4FF"/>
    <circle cx="1288" cy="106" r="2" fill="#A3B2FF"/>
    <circle cx="1410" cy="168" r="3" fill="#96FFE8"/>
    <circle cx="1540" cy="132" r="2" fill="#A3B2FF"/>
    <circle cx="514" cy="64" r="1.5" fill="#A3B2FF"/>
    <circle cx="742" cy="173" r="1.5" fill="#96FFE8"/>
    <circle cx="1118" cy="137" r="1.5" fill="#A3B2FF"/>
    <circle cx="1353" cy="77" r="1.5" fill="#96FFE8"/>
  </g>

  <g opacity="0.45">
    <path d="M0 518C120 442 194 451 286 504C360 548 448 568 588 518C744 463 875 460 1028 525C1168 585 1289 571 1600 472V900H0V518Z" fill="#0A1229"/>
    <path d="M0 572C106 518 178 526 264 567C369 617 490 645 636 598C783 549 910 539 1096 612C1232 666 1373 666 1600 578V900H0V572Z" fill="#070E22"/>
  </g>

  <g filter="url(#blur32)" opacity="0.5">
    <circle cx="806" cy="565" r="108" fill="#3F9FFF"/>
    <circle cx="820" cy="575" r="220" fill="#6430FF" fill-opacity="0.35"/>
  </g>

  <rect y="560" width="1600" height="340" fill="url(#groundGlow)"/>
  <rect x="0" y="558" width="1600" height="2" fill="url(#horizonLine)"/>

  <g opacity="0.22">
    <path d="M0 900V598H1600V900H0Z" fill="url(#bgSky)"/>
    <path d="M140 598V900" stroke="#88A5FF" stroke-width="1"/>
    <path d="M260 598V900" stroke="#88A5FF" stroke-width="1"/>
    <path d="M380 598V900" stroke="#88A5FF" stroke-width="1"/>
    <path d="M500 598V900" stroke="#88A5FF" stroke-width="1"/>
    <path d="M620 598V900" stroke="#88A5FF" stroke-width="1"/>
    <path d="M740 598V900" stroke="#88A5FF" stroke-width="1"/>
    <path d="M860 598V900" stroke="#88A5FF" stroke-width="1"/>
    <path d="M980 598V900" stroke="#88A5FF" stroke-width="1"/>
    <path d="M1100 598V900" stroke="#88A5FF" stroke-width="1"/>
    <path d="M1220 598V900" stroke="#88A5FF" stroke-width="1"/>
    <path d="M1340 598V900" stroke="#88A5FF" stroke-width="1"/>
    <path d="M1460 598V900" stroke="#88A5FF" stroke-width="1"/>
    <path d="M0 650H1600" stroke="#88A5FF" stroke-width="1"/>
    <path d="M0 705H1600" stroke="#88A5FF" stroke-width="1"/>
    <path d="M0 760H1600" stroke="#88A5FF" stroke-width="1"/>
    <path d="M0 815H1600" stroke="#88A5FF" stroke-width="1"/>
  </g>

  <g filter="url(#glowPink)" opacity="0.8">
    <path d="M1094 480L1152 298L1210 480H1170L1168 562H1138L1136 480H1094Z" fill="#291040"/>
    <path d="M1106 480H1198V535H1106V480Z" fill="#1D0D35"/>
    <path d="M1118 424H1186" stroke="#FF7BEF" stroke-width="3" stroke-linecap="round"/>
    <path d="M1132 396H1172" stroke="#FF7BEF" stroke-width="3" stroke-linecap="round"/>
    <circle cx="1136" cy="512" r="6" fill="#FF7BEF"/>
    <circle cx="1168" cy="512" r="6" fill="#FF7BEF"/>
  </g>

  <g opacity="0.7">
    <path d="M1058 578H1270L1238 624H1090L1058 578Z" fill="#21153F"/>
    <rect x="1092" y="624" width="18" height="48" fill="#21153F"/>
    <rect x="1220" y="624" width="18" height="48" fill="#21153F"/>
  </g>

  <g filter="url(#glowBlue)">
    <circle cx="715" cy="590" r="34" fill="url(#orbGlow)"/>
    <circle cx="715" cy="590" r="58" fill="#4ED7FF" fill-opacity="0.22"/>
    <circle cx="715" cy="590" r="96" fill="#2E62FF" fill-opacity="0.12"/>
  </g>

  <g opacity="0.95">
    <path d="M461 740L520 618L574 740H538L534 792H499L494 740H461Z" fill="#0E1228"/>
    <ellipse cx="519" cy="806" rx="95" ry="24" fill="#080B18"/>
    <rect x="499" y="604" width="34" height="150" rx="12" fill="#11162E"/>
    <rect x="507" y="606" width="18" height="138" rx="8" fill="#1F2A54"/>
    <path d="M478 624L560 624C575 624 587 636 587 651V652H451V651C451 636 463 624 478 624Z" fill="#131937"/>
    <path d="M443 652H595L575 716H462L443 652Z" fill="#0E142E"/>
    <path d="M483 684L519 668L555 684L541 716H497L483 684Z" fill="#1D2751"/>
    <circle cx="519" cy="568" r="32" fill="#171E3E"/>
    <path d="M503 565H535L519 586L503 565Z" fill="#4BD1FF"/>
    <rect x="516" y="418" width="6" height="196" fill="url(#swordGlow)"/>
    <path d="M502 420L519 372L536 420H502Z" fill="#9AEFFF"/>
    <path d="M487 610H551V624H487V610Z" fill="#4BD1FF"/>
    <path d="M495 624H543V640H495V624Z" fill="#151E40"/>
    <rect x="512" y="642" width="14" height="72" rx="7" fill="#4BD1FF"/>
    <circle cx="519" cy="714" r="11" fill="#2A89FF"/>
  </g>

  <g filter="url(#glowPink)" opacity="0.95">
    <path d="M1204 742L1234 662L1262 742H1244L1242 776H1222L1220 742H1204Z" fill="#210A2E"/>
    <ellipse cx="1234" cy="796" rx="67" ry="20" fill="#12051B"/>
    <ellipse cx="1234" cy="694" rx="74" ry="42" fill="#2B0F3C"/>
    <ellipse cx="1209" cy="690" rx="14" ry="18" fill="#FF86F1"/>
    <ellipse cx="1259" cy="690" rx="14" ry="18" fill="#FF86F1"/>
    <circle cx="1209" cy="690" r="5" fill="#2A0A37"/>
    <circle cx="1259" cy="690" r="5" fill="#2A0A37"/>
    <path d="M1210 712C1218 724 1250 724 1258 712" stroke="#FF86F1" stroke-width="5" stroke-linecap="round"/>
    <path d="M1192 664L1178 642" stroke="#FF86F1" stroke-width="4" stroke-linecap="round"/>
    <path d="M1276 664L1290 642" stroke="#FF86F1" stroke-width="4" stroke-linecap="round"/>
  </g>

  <g filter="url(#glowBlue)" opacity="0.85">
    <circle cx="814" cy="584" r="184" stroke="#63DFFF" stroke-width="3" stroke-dasharray="10 14"/>
    <circle cx="814" cy="584" r="128" stroke="#63DFFF" stroke-width="2" stroke-dasharray="8 10"/>
    <path d="M814 400V768" stroke="#63DFFF" stroke-width="1.5" stroke-dasharray="8 10"/>
    <path d="M630 584H998" stroke="#63DFFF" stroke-width="1.5" stroke-dasharray="8 10"/>
  </g>

  <g opacity="0.9" clip-path="url(#panelClip)">
    <rect x="140" y="84" width="430" height="128" rx="20" fill="#0C1228" fill-opacity="0.88"/>
    <rect x="140" y="84" width="430" height="128" rx="20" stroke="#4ED7FF" stroke-width="2"/>
    <path d="M140 122H570" stroke="#4ED7FF" stroke-opacity="0.4"/>
    <text x="170" y="113" fill="#9ED8FF" font-family="monospace" font-size="20">QUEST: LEGEND OF CODE</text>
    <text x="170" y="153" fill="#D6EAFF" font-family="monospace" font-size="18">HP 94 / 120</text>
    <text x="330" y="153" fill="#D6EAFF" font-family="monospace" font-size="18">MP 58 / 90</text>
    <text x="170" y="185" fill="#8DEFA6" font-family="monospace" font-size="18">SKILL READY: Binary Slash</text>
  </g>

  <g filter="url(#blur12)" opacity="0.9">
    <text x="678" y="335" fill="#6CE8FF" font-family="monospace" font-size="28">if (hero.hp &gt; 0) { attackBoss(); }</text>
    <text x="830" y="380" fill="#78B9FF" font-family="monospace" font-size="20">const relic = "Crystal Core";</text>
    <text x="610" y="810" fill="#8A7EFF" font-family="monospace" font-size="18">EXP + 240</text>
  </g>
</svg>
