<svg width="32" height="32" viewBox="0 0 32 32" xmlns="http://www.w3.org/2000/svg">
  <!-- Cape -->
  <rect x="6" y="12" width="20" height="18" fill="#e74c3c" rx="2" />
  
  <!-- Shadow/Ground (Optional) -->
  
  <!-- Feet -->
  <rect x="10" y="26" width="4" height="4" fill="#2c3e50" />
  <rect x="18" y="26" width="4" height="4" fill="#2c3e50" />

  <!-- Body Armor -->
  <rect x="9" y="14" width="14" height="12" fill="#3498db" rx="2" />
  <!-- Chest Detail -->
  <rect x="12" y="16" width="8" height="8" fill="#ecf0f1" rx="1"/>

  <!-- Head/Helmet -->
  <!-- Helmet Back -->
  <rect x="8" y="4" width="16" height="12" fill="#95a5a6" rx="4" />
  <!-- Face Area -->
  <rect x="10" y="8" width="12" height="7" fill="#ffeaa7" rx="2" />
  
  <!-- Eyes -->
  <rect x="12" y="10" width="2" height="2" fill="#2d3436" />
  <rect x="18" y="10" width="2" height="2" fill="#2d3436" />
  
  <!-- Helmet Horns/Decoration -->
  <path d="M8 8 L4 4 L8 6 Z" fill="#bdc3c7" />
  <path d="M24 8 L28 4 L24 6 Z" fill="#bdc3c7" />
  <rect x="14" y="2" width="4" height="4" fill="#f1c40f" />

  <!-- Sword -->
  <rect x="24" y="6" width="3" height="16" fill="#bdc3c7" />
  <rect x="22" y="18" width="7" height="3" fill="#7f8c8d" />
  <rect x="24" y="21" width="3" height="5" fill="#7f8c8d" />
</svg>
